<?xml version="1.0" encoding="UTF-8"?>
<svg version="1.1" xmlns="http://www.w3.org/2000/svg" width="2000" height="2000">
<path d="M0 0 C660 0 1320 0 2000 0 C2000 660 2000 1320 2000 2000 C1340 2000 680 2000 0 2000 C0 1340 0 680 0 0 Z " fill="#FEFEFE" transform="translate(0,0)"/>
<path d="M0 0 C2.89187968 0.2547036 5.7837208 0.46930666 8.6796875 0.67138672 C51.5370454 3.84499378 95.62191251 12.64087356 136.57055664 25.49291992 C139.42970652 26.38621107 142.29507659 27.25824328 145.16015625 28.13232422 C198.11685622 44.4326135 249.78810546 65.75870394 297.24121094 94.56298828 C300.14137854 96.32161126 303.05399099 98.05816538 305.96875 99.79248047 C324.68973692 110.98803192 342.47747142 123.36840738 360.0546875 136.26904297 C360.7362793 136.76758789 361.41787109 137.26613281 362.12011719 137.77978516 C372.74630964 145.57095672 382.9722649 153.78808992 393.0546875 162.26904297 C393.68149414 162.79530273 394.30830078 163.3215625 394.95410156 163.86376953 C402.38752975 170.12119839 409.62737637 176.55287922 416.7265625 183.18701172 C418.53300285 184.87481173 420.35581766 186.5358676 422.20629883 188.17553711 C428.88569422 194.09589495 435.23602326 200.29648122 441.53295898 206.61694336 C443.24675983 208.33612967 444.96587832 210.0498688 446.68554688 211.76318359 C451.82667415 216.9012024 456.89156464 222.04723314 461.61157227 227.58081055 C463.80961442 230.15219636 466.12403817 232.60625877 468.4296875 235.08154297 C472.72219958 239.72808425 476.78806781 244.51003537 480.75390625 249.44091797 C482.79286378 251.94720872 484.8784385 254.40498615 486.98779297 256.85205078 C493.73862554 264.70452364 499.93782764 272.91736187 506.0546875 281.26904297 C506.56757324 281.96626465 507.08045898 282.66348633 507.60888672 283.38183594 C526.43453214 309.01263832 543.53187203 335.51706471 559.0546875 363.26904297 C559.53760254 364.1251416 560.02051758 364.98124023 560.51806641 365.86328125 C579.09843321 398.86126824 594.43900083 433.57366137 607.0546875 469.26904297 C607.69204834 471.07236084 607.69204834 471.07236084 608.34228516 472.91210938 C619.03789735 503.37062975 627.86561777 534.57362824 634.0546875 566.26904297 C634.19112671 566.96547913 634.32756592 567.66191528 634.46813965 568.37945557 C638.6601596 589.90002683 641.74459354 611.45299051 643.9296875 633.26904297 C644.03314484 634.28797638 644.13660217 635.30690979 644.24319458 636.35671997 C646.64295358 660.34097127 647.26189848 684.30108868 647.2421875 708.39404297 C647.24224792 709.54348389 647.24230835 710.6929248 647.24237061 711.87719727 C647.22879499 730.09882874 646.67909368 748.11630394 645.0546875 766.26904297 C644.90766798 768.10488586 644.76176785 769.94081887 644.6171875 771.77685547 C642.82767854 793.37704199 639.59559859 814.92022501 635.62304688 836.22070312 C635.22807 838.3391229 634.83918677 840.45868424 634.45507812 842.57910156 C621.04997898 916.13184944 594.28217518 988.98073666 556.625 1053.55908203 C555.0477761 1056.28097029 553.50019639 1059.01771638 551.9609375 1061.76123047 C546.0782053 1072.22706531 539.92486019 1082.43490169 533.27587891 1092.43212891 C532.15703631 1094.11509006 531.04868325 1095.80501249 529.94140625 1097.49560547 C521.17865566 1110.80655726 511.67456388 1123.57067584 502.0546875 1136.26904297 C501.61624512 1136.85073242 501.17780273 1137.43242188 500.72607422 1138.03173828 C495.26447097 1145.27324839 489.59173881 1152.27726094 483.69140625 1159.16357422 C481.33358521 1161.921572 479.06578369 1164.74350666 476.8046875 1167.58154297 C471.74810665 1173.79805635 466.23664138 1179.56701735 460.7265625 1185.37841797 C457.74264867 1188.52658393 454.82640203 1191.72772104 451.9296875 1194.95654297 C446.57070655 1200.82474835 440.97854483 1206.45546437 435.3671875 1212.08154297 C434.47563965 1212.97768311 433.5840918 1213.87382324 432.66552734 1214.79711914 C428.19148466 1219.26074933 423.66194367 1223.58584707 418.86645508 1227.70239258 C416.0864191 1230.10631265 413.42234553 1232.63012581 410.7421875 1235.14404297 C405.92367039 1239.62646571 400.98285817 1243.88340027 395.84765625 1248.00341797 C393.35202886 1250.02784298 390.90781223 1252.10156684 388.47412109 1254.19970703 C381.30342932 1260.36593545 373.83754635 1266.06201959 366.22314453 1271.66699219 C363.99064394 1273.31635819 361.77001634 1274.98078633 359.55078125 1276.64794922 C347.99935427 1285.2926922 336.15409232 1293.41180752 324.0546875 1301.26904297 C323.2503125 1301.79240234 322.4459375 1302.31576172 321.6171875 1302.85498047 C309.35929829 1310.79841525 296.81367675 1318.16256949 284.0546875 1325.26904297 C283.15218262 1325.77516113 282.24967773 1326.2812793 281.31982422 1326.80273438 C251.86940494 1343.27024972 221.52314667 1357.14212674 190.0546875 1369.26904297 C188.89001953 1369.71860352 187.72535156 1370.16816406 186.52539062 1370.63134766 C170.49856298 1376.75006034 154.13899689 1381.73691077 137.69432068 1386.58843994 C133.61248869 1387.79467951 129.55280487 1389.05938691 125.49609375 1390.34716797 C118.49218802 1392.50920581 111.39784268 1394.13230786 104.2421875 1395.70654297 C102.87552687 1396.01014274 101.50890972 1396.31393828 100.14233398 1396.61791992 C96.1151311 1397.51096602 92.08519467 1398.39103003 88.0546875 1399.26904297 C86.93932617 1399.51332031 85.82396484 1399.75759766 84.67480469 1400.00927734 C58.66294216 1405.67780062 32.62051793 1409.47006641 6.14099121 1412.06335449 C4.25266264 1412.24952462 2.36505204 1412.44294211 0.47753906 1412.63720703 C-39.80388205 1416.64263181 -81.63115783 1415.71274525 -121.9453125 1412.26904297 C-122.72249634 1412.20352234 -123.49968018 1412.13800171 -124.30041504 1412.07049561 C-145.29771854 1410.28379196 -166.02091542 1407.79730906 -186.73388672 1403.87158203 C-189.8954873 1403.27839135 -193.06108372 1402.71741942 -196.23046875 1402.16748047 C-212.29820378 1399.36593342 -212.29820378 1399.36593342 -219.921875 1397.09326172 C-222.43453502 1396.40828592 -224.92280811 1395.82823127 -227.46875 1395.28857422 C-242.5805415 1392.07735408 -257.20443174 1387.69915715 -271.89215088 1382.93304443 C-274.00646662 1382.24926546 -276.12282991 1381.57216683 -278.23974609 1380.89648438 C-309.80123476 1370.80652568 -340.10033353 1358.67650256 -369.9453125 1344.26904297 C-370.99154785 1343.76518066 -372.0377832 1343.26131836 -373.11572266 1342.7421875 C-388.06868313 1335.50247621 -402.58825595 1327.62333092 -416.9453125 1319.26904297 C-418.16468506 1318.56690674 -418.16468506 1318.56690674 -419.40869141 1317.85058594 C-462.10006432 1293.21790138 -502.03804125 1263.25840464 -538.1875 1229.80810547 C-540.72588166 1227.47106853 -543.29812084 1225.17954202 -545.8828125 1222.89404297 C-550.05260594 1219.14599046 -554.08248802 1215.27119093 -558.0703125 1211.33154297 C-558.65159912 1210.76322754 -559.23288574 1210.19491211 -559.83178711 1209.609375 C-561.24286303 1208.20148627 -562.59943477 1206.73938275 -563.9453125 1205.26904297 C-563.9453125 1204.60904297 -563.9453125 1203.94904297 -563.9453125 1203.26904297 C-563.26283447 1203.04990234 -562.58035645 1202.83076172 -561.87719727 1202.60498047 C-553.12133253 1199.79143784 -544.36964681 1196.96507338 -535.6194458 1194.13397217 C-532.80232848 1193.22279581 -529.9849 1192.31258519 -527.16748047 1191.40234375 C-488.53281807 1178.91274379 -450.5434707 1165.61573138 -412.9453125 1150.26904297 C-411.73133789 1149.77484863 -410.51736328 1149.2806543 -409.26660156 1148.77148438 C-361.53856779 1129.29460427 -314.48533323 1107.27690877 -269.9453125 1081.26904297 C-269.05166992 1080.75067871 -268.15802734 1080.23231445 -267.23730469 1079.69824219 C-247.70590098 1068.35776429 -228.33232218 1056.66605596 -209.87695312 1043.63134766 C-207.80667654 1042.17126887 -205.72802097 1040.72364343 -203.6484375 1039.27685547 C-195.45516221 1033.55904952 -187.41102774 1027.70150251 -179.55322266 1021.52978516 C-177.86983748 1020.20986395 -176.17953797 1018.8991718 -174.48828125 1017.58935547 C-167.03239601 1011.79731639 -159.75683125 1005.82683444 -152.59277344 999.67822266 C-150.9172246 998.24501757 -149.23304276 996.82254559 -147.546875 995.40185547 C-135.52264504 985.23938701 -124.10188844 974.49949221 -112.9453125 963.39404297 C-111.90443481 962.36017456 -111.90443481 962.36017456 -110.8425293 961.30541992 C-106.89713392 957.34764011 -103.13620971 953.28245313 -99.48632812 949.05078125 C-97.6018794 946.87196205 -95.64976214 944.76008096 -93.6953125 942.64404297 C-88.11219358 936.43953139 -82.99765125 929.90542724 -77.9453125 923.26904297 C-77.39681641 922.55039063 -76.84832031 921.83173828 -76.28320312 921.09130859 C-51.41537396 888.35569167 -30.28572678 851.31547194 -19.9453125 811.26904297 C-19.54828328 809.94101388 -19.14698545 808.61425597 -18.7421875 807.28857422 C-12.15566493 785.12982638 -10.57567815 762.4381367 -10.5703125 739.45654297 C-10.56840912 738.58206512 -10.56650574 737.70758728 -10.56454468 736.80661011 C-10.56862762 720.27749288 -11.89569309 704.21453737 -15.6328125 688.08154297 C-16.02690308 686.36173218 -16.02690308 686.36173218 -16.42895508 684.60717773 C-22.914 656.96121157 -33.00334618 631.02439837 -46.9453125 606.26904297 C-47.34041016 605.56021973 -47.73550781 604.85139648 -48.14257812 604.12109375 C-63.24960493 577.16457006 -82.26424087 552.81874024 -103.23046875 530.20263672 C-105.06148369 528.22408677 -106.88278345 526.24036545 -108.69140625 524.24169922 C-116.69252669 515.41096952 -124.85460005 506.75044384 -133.9296875 499.00341797 C-136.24645871 497.00991716 -138.49951234 494.95349909 -140.7578125 492.89404297 C-145.07656907 488.9966285 -149.52293301 485.29603942 -154.046875 481.64013672 C-156.57445908 479.57242306 -159.05899929 477.46312428 -161.53271484 475.33154297 C-168.7309445 469.14594189 -176.21262599 463.40997915 -183.86376953 457.79736328 C-185.88477473 456.31349129 -187.89753032 454.81893741 -189.91015625 453.32373047 C-213.02107326 436.27835935 -237.25956714 420.90858945 -261.9453125 406.26904297 C-263.537848 405.31345974 -265.13030539 404.35774633 -266.72265625 403.40185547 C-302.96934644 381.84529368 -341.30540191 363.10969065 -379.9453125 346.26904297 C-380.94337921 345.83365204 -380.94337921 345.83365204 -381.96160889 345.38946533 C-401.68800661 336.79613158 -421.58129806 328.71063337 -441.71289062 321.11361694 C-444.25241614 320.15285895 -446.78913286 319.18483354 -449.32617188 318.2175293 C-463.88791292 312.68731256 -478.5599 307.55400634 -493.3203125 302.58154297 C-495.46756584 301.85467771 -497.61470148 301.12746464 -499.76171875 300.39990234 C-504.90057817 298.65972768 -510.04208736 296.92755958 -515.18481445 295.19885254 C-517.68784195 294.35576594 -520.18894572 293.50726279 -522.68945312 292.65673828 C-534.60719018 288.61898786 -546.63356521 284.97551367 -558.6953125 281.39404297 C-559.71547455 281.08978394 -560.7356366 280.7855249 -561.78671265 280.4720459 C-575.95587402 276.24909319 -590.15210327 272.19336928 -604.48925781 268.578125 C-605.59495117 268.29565918 -606.70064453 268.01319336 -607.83984375 267.72216797 C-608.78706299 267.4865918 -609.73428223 267.25101563 -610.71020508 267.00830078 C-612.9453125 266.26904297 -612.9453125 266.26904297 -614.9453125 264.26904297 C-614.25566406 263.45822266 -613.56601562 262.64740234 -612.85546875 261.81201172 C-611.90604709 260.69369437 -610.95684507 259.57519053 -610.0078125 258.45654297 C-609.25346924 257.56793579 -609.25346924 257.56793579 -608.48388672 256.66137695 C-605.46106764 253.09073771 -602.49637416 249.48230892 -599.5703125 245.83154297 C-594.94487322 240.14125436 -589.95634663 234.82404702 -584.94140625 229.47998047 C-582.70616517 227.09544812 -580.5183097 224.68142237 -578.3828125 222.20654297 C-568.34687909 210.60946437 -557.83813376 199.16115742 -546.16015625 189.20263672 C-543.83216308 187.17026173 -541.57410612 185.07548173 -539.31616211 182.96606445 C-533.96629099 177.97000642 -528.52347462 173.19031372 -522.8125 168.60498047 C-519.52951256 165.93028498 -516.33297548 163.16663596 -513.1328125 160.39404297 C-496.30642541 145.89626682 -478.32504084 132.7220584 -459.9453125 120.26904297 C-458.38876953 119.19396484 -458.38876953 119.19396484 -456.80078125 118.09716797 C-438.27219371 105.41073265 -418.75345064 93.83140136 -398.9453125 83.26904297 C-398.11386719 82.82318848 -397.28242187 82.37733398 -396.42578125 81.91796875 C-343.15349125 53.4391329 -286.85640829 31.03452412 -227.9453125 17.26904297 C-227.25501953 17.10710449 -226.56472656 16.94516602 -225.85351562 16.77832031 C-223.21940457 16.16263486 -220.58351937 15.55649615 -217.94384766 14.96508789 C-215.16876345 14.32091226 -212.42480864 13.60256194 -209.671875 12.87060547 C-201.71691208 10.87758919 -193.66434188 9.60930706 -185.5703125 8.33154297 C-184.35080399 8.13786636 -184.35080399 8.13786636 -183.10665894 7.9402771 C-178.14198486 7.15344021 -173.17521085 6.38109527 -168.20684814 5.61791992 C-166.15139337 5.30083414 -164.09688015 4.97765991 -162.04248047 4.65380859 C-109.03371819 -3.61181704 -53.39853103 -4.74600253 0 0 Z " fill="#D4E9F7" transform="translate(1120.9453125,293.73095703125)"/>
<path d="M0 0 C6.9217591 4.55847278 9.95909513 11.52444219 13 19 C13.40361252 19.75070267 13.80722504 20.50140533 14.22306824 21.27485657 C18.21045433 28.95657547 18.6672169 35.42573862 18.48828125 43.98046875 C18.48120651 45.27447098 18.47413177 46.56847321 18.46684265 47.90168762 C18.44796252 51.30346057 18.39903474 54.70412635 18.34332275 58.10546875 C18.2917128 61.59164461 18.26924066 65.07800347 18.24414062 68.56445312 C18.19089029 75.37675025 18.10581686 82.18832164 18 89 C23.14762313 90.04155924 28.09385282 90.15769606 33.32006836 90.17358398 C34.70752573 90.18368673 34.70752573 90.18368673 36.12301254 90.19399357 C38.13579923 90.2081076 40.14860203 90.22005348 42.16141319 90.23008728 C45.39670088 90.24638008 48.63190092 90.26857233 51.86714172 90.2923584 C56.49129233 90.32607829 61.1154498 90.35784825 65.73962402 90.38815308 C99.24913427 90.61266949 132.75520689 90.87250307 166.25 91.9375 C167.51576874 91.97511444 168.78153748 92.01272888 170.08566284 92.05148315 C197.51054345 92.88517561 226.81163336 94.76509049 246.8125 115.57421875 C251.21000729 120.45074022 250.61740116 126.2203684 250.453125 132.484375 C249.72112209 143.28367712 241.81050613 151.78840588 235.48876953 160.05883789 C223.3219138 175.97889167 217.71645017 191.93278649 212.75463867 211.11474609 C209.56311318 223.16264509 205.59520716 235.3476829 199 246 C198.608125 247.093125 198.21625 248.18625 197.8125 249.3125 C196.10891626 253.47178159 193.14655311 256.10413395 189.91796875 259.14453125 C187.84586826 261.05362767 187.84586826 261.05362767 185.875 263.8125 C181.3238764 269.12214421 174.62474904 270.15671563 168 271 C156.87754403 271.74455765 147.40339519 270.04671892 136.75 267.0625 C134.68325018 266.49492297 132.61528125 265.93321416 130.54425049 265.38145447 C128.67571562 264.88208888 126.81177546 264.36561876 124.94824219 263.84790039 C113.15145414 261.07270127 100.62210678 261.78478537 88.58203125 261.68359375 C86.51266599 261.66298955 84.44330462 261.64199225 82.37394714 261.62062073 C76.96047126 261.56575766 71.54695969 261.51619255 66.13342285 261.46777344 C60.59607819 261.41729516 55.05878457 261.36174733 49.52148438 261.30664062 C38.68103331 261.19949736 27.84053769 261.09795739 17 261 C16.17189238 271.49711476 15.84939533 281.9304735 15.84228516 292.45947266 C15.83760145 294.04648474 15.83245541 295.63349552 15.82688904 297.22050476 C15.81572147 300.60551447 15.80723399 303.99051597 15.80076981 307.37553787 C15.78996942 312.74033004 15.76969781 318.10506185 15.74765015 323.46981812 C15.68611477 338.71390024 15.63170678 353.95797581 15.59863281 369.20214844 C15.58023351 377.64633702 15.55124338 386.09042118 15.5106281 394.5345329 C15.48967091 398.98873249 15.47411672 403.44280129 15.47182083 407.89705276 C15.46965885 412.08500944 15.45363336 416.27269248 15.42743111 420.46056557 C15.42029909 421.9870318 15.4181071 423.5135314 15.42153358 425.04001045 C15.44988914 440.08692165 13.66743137 451.65531802 4 463.4375 C-1.51742913 467.74799151 -8.29372464 467.73177594 -15 467 C-20.41085641 465.06025902 -21.88831417 461.59190282 -24.25 456.625 C-27.23560549 449.77094868 -29.25126771 444.1386652 -29.24050903 436.59683228 C-29.24221788 435.87300051 -29.24392673 435.14916875 -29.24568737 434.40340269 C-29.24896893 431.98969874 -29.23800075 429.57627578 -29.22705078 427.16259766 C-29.22648638 425.42774461 -29.2268038 423.69289109 -29.22793579 421.95803833 C-29.22850917 417.25602227 -29.21675721 412.55410843 -29.20278788 407.85211611 C-29.19027809 402.93538209 -29.18910982 398.01864567 -29.18673706 393.10189819 C-29.18052303 383.79475923 -29.16411323 374.48766729 -29.14403808 365.18054903 C-29.12167671 354.58327832 -29.11068505 343.98600536 -29.10064721 333.38871694 C-29.07974695 311.59245172 -29.04457244 289.79622882 -29 268 C-30.91622162 268.00380676 -30.91622162 268.00380676 -32.87115479 268.00769043 C-34.57849114 268.00974375 -36.28582757 268.01173421 -37.99316406 268.01367188 C-38.83142731 268.01550476 -39.66969055 268.01733765 -40.53335571 268.01922607 C-48.28112798 268.02579795 -56.00765337 267.79502248 -63.75 267.5 C-78.12811737 266.95880942 -92.31617944 266.48121806 -106.625 268.25 C-107.73601074 268.38277344 -108.84702148 268.51554687 -109.99169922 268.65234375 C-119.47980596 269.83547389 -128.83326837 271.50064494 -138.19213867 273.44262695 C-140.98299777 273.99662498 -143.78155346 274.49392371 -146.58320618 274.98982239 C-155.52832253 276.5947928 -164.20676949 278.80652155 -172.9375 281.3125 C-174.34947566 281.71039085 -175.76150422 282.10809401 -177.17358398 282.50561523 C-184.42584845 284.56603023 -191.53132166 286.83233994 -198.5625 289.5625 C-206.01299319 292.36519336 -213.07619003 293.59589615 -221 292 C-224.53726189 290.11218907 -227.25422217 287.90606436 -230 285 C-230.33 284.67 -230.66 284.34 -231 284 C-231.27854721 281.61359486 -231.49932651 279.24575237 -231.68359375 276.8515625 C-231.80792475 275.35546726 -231.93227434 273.85937356 -232.05664062 272.36328125 C-232.24675255 270.00939858 -232.43508353 267.65538304 -232.62231445 265.30126953 C-233.26102555 257.34064512 -233.95258551 249.52024451 -235.51586914 241.67773438 C-236.69419007 235.16042529 -237.18629025 228.52461075 -237.85546875 221.93945312 C-238.48825608 215.94158178 -239.31960563 210.1078247 -240.57617188 204.21020508 C-241.18765225 201.02141945 -241.35941502 197.86548384 -241.5 194.625 C-242.27446742 175.14737318 -242.27446742 175.14737318 -247.09765625 156.41015625 C-249.51192896 149.9616443 -249.25402367 143.35744897 -249.3125 136.5625 C-249.34150391 135.44294922 -249.37050781 134.32339844 -249.40039062 133.16992188 C-249.4488059 126.89455745 -249.35205444 122.88480593 -245 118 C-243.88431641 116.66195312 -243.88431641 116.66195312 -242.74609375 115.296875 C-241.60333984 114.03617188 -241.60333984 114.03617188 -240.4375 112.75 C-239.29087891 111.47382812 -239.29087891 111.47382812 -238.12109375 110.171875 C-235.21722643 107.198486 -232.67068016 105.80475676 -228.75 104.6875 C-225.50193416 103.65569951 -223.02893222 102.49448654 -220.3125 100.4375 C-210.26179671 92.83094501 -194.86389121 94.826539 -182.77609253 94.61157227 C-162.99100388 94.25378121 -143.21448106 93.65790989 -123.4375 93 C-122.1706839 92.95811554 -120.9038678 92.91623108 -119.59866333 92.87307739 C-103.19610356 92.33124022 -103.19610356 92.33124022 -86.79614258 91.71704102 C-74.12683231 91.21533112 -61.49162582 90.85752931 -48.8125 90.9375 C-47.34570475 90.94255398 -45.8789077 90.94710962 -44.41210938 90.95117188 C-40.94136645 90.96180367 -37.47069672 90.97882331 -34 91 C-30.27849594 76.71788788 -29.07953776 62.87651087 -28.43920898 48.16796875 C-26.79614102 12.10153563 -26.79614102 12.10153563 -17.1875 2.6875 C-12.25310688 -1.33273187 -6.03155703 -1.17577188 0 0 Z " fill="#01367A" transform="translate(605,793)"/>
<path d="M0 0 C1.16429535 -0.01226624 1.16429535 -0.01226624 2.35211182 -0.02478027 C4.90774785 -0.04949482 7.46332922 -0.06610661 10.01904297 -0.08056641 C10.89331814 -0.08589008 11.76759331 -0.09121376 12.66836166 -0.09669876 C17.28833894 -0.12335859 21.90828975 -0.14276371 26.52832031 -0.15722656 C30.35408196 -0.1706102 34.17931582 -0.19855336 38.00488281 -0.23925781 C42.6272425 -0.2884332 47.24912068 -0.31332719 51.8717308 -0.32045364 C53.6332717 -0.32718275 55.39480113 -0.34244776 57.15619278 -0.36634445 C59.61512287 -0.397825 62.07217289 -0.39806063 64.53125 -0.390625 C65.26066803 -0.40703033 65.99008606 -0.42343567 66.74160767 -0.44033813 C68.77200317 -0.41513062 68.77200317 -0.41513062 72.13623047 0.19287109 C74.8777802 3.32977398 75.51252063 5.96087385 75.52441406 10.05786133 C75.53837975 11.47512512 75.53837975 11.47512512 75.55262756 12.92102051 C75.54373756 14.44584045 75.54373756 14.44584045 75.53466797 16.00146484 C75.53885239 17.06868774 75.5430368 18.13591064 75.54734802 19.23547363 C75.55364114 22.70073696 75.53477025 26.16518977 75.51123047 29.63037109 C75.5069101 30.80238068 75.50258972 31.97439026 75.49813843 33.18191528 C75.43720623 47.19403644 75.23976777 61.1715898 73.94873047 75.13037109 C73.84802246 76.31622803 73.74731445 77.50208496 73.64355469 78.72387695 C73.13561645 83.26900129 72.65565581 86.39179272 70.14794922 90.25927734 C61.08791135 96.07603318 50.55975947 95.87208579 40.13623047 96.31787109 C38.49947046 96.39784168 36.86275199 96.47866653 35.22607422 96.56030273 C27.1150759 96.95200012 19.00451448 97.24544553 10.88623047 97.43115234 C10.15132889 97.44796555 9.41642731 97.46477875 8.65925598 97.48210144 C7.93340805 97.49856216 7.20756012 97.51502289 6.4597168 97.53198242 C5.01855214 97.56466663 3.57739 97.59746194 2.13623047 97.63037109 C1.42518158 97.64651459 0.71413269 97.66265808 -0.01846313 97.67929077 C-10.11697524 97.92289491 -19.90571061 98.77082481 -29.86767578 100.43115234 C-36.69971626 101.54695526 -43.59528113 102.02207101 -50.4934082 102.54614258 C-51.871698 102.65357788 -51.871698 102.65357788 -53.27783203 102.76318359 C-54.09203613 102.8226416 -54.90624023 102.88209961 -55.74511719 102.94335938 C-58.04989503 103.14208036 -58.04989503 103.14208036 -60.86376953 104.19287109 C-70.31291604 104.66532842 -82.15376941 105.22846883 -89.67626953 98.81787109 C-100.87442249 87.59499815 -98.05703365 64.42430887 -98.0703125 49.77685547 C-98.05163235 40.91499359 -97.97908686 32.05397303 -97.86376953 23.19287109 C-97.17307373 22.85151123 -96.48237793 22.51015137 -95.77075195 22.15844727 C-94.86687744 21.70961182 -93.96300293 21.26077637 -93.03173828 20.79833984 C-92.13479248 20.35385498 -91.23784668 19.90937012 -90.3137207 19.45141602 C-87.78208276 18.19530738 -87.78208276 18.19530738 -85.17626953 16.50537109 C-80.10941195 13.62958706 -74.30190427 12.86638821 -68.64501953 11.78222656 C-66.0167917 11.22529696 -63.47770409 10.53670262 -60.89892578 9.78662109 C-54.35234947 7.98046058 -47.73842207 6.78811405 -41.05126953 5.63037109 C-39.2984668 5.3180957 -39.2984668 5.3180957 -37.51025391 4.99951172 C-30.32963299 3.73607097 -23.139638 2.62876109 -15.91577148 1.64233398 C-12.99184641 1.25546779 -12.99184641 1.25546779 -10.664505 0.67683411 C-7.10493546 0.06174567 -3.60083046 0.02114695 0 0 Z " fill="#FEFEFE" transform="translate(500.86376953125,922.80712890625)"/>
<path d="M0 0 C5.51251226 0.01715258 11.02458793 0.00717083 16.53708458 -0.01071739 C20.86316078 -0.021676 25.18913725 -0.01805534 29.51521683 -0.01033401 C31.54569173 -0.00836852 33.57617647 -0.01065856 35.60663986 -0.01777267 C81.67005756 -0.14395724 81.67005756 -0.14395724 91.78857422 8.45361328 C92.42923828 8.98083984 93.06990234 9.50806641 93.72998047 10.05126953 C96.21752679 12.27901989 96.21752679 12.27901989 96.49951172 15.97705078 C96.82014166 26.65220865 95.46393516 35.74291748 92.44873047 45.95751953 C91.31861707 49.83682712 90.71863433 53.61665607 90.28857422 57.64111328 C88.97225276 68.04980332 85.22326519 78.03340023 78.22998047 85.97314453 C72.51228297 90.01900065 65.30386752 89.7773733 58.57763672 89.98876953 C57.5656723 90.02796005 56.55370789 90.06715057 55.51107788 90.10752869 C52.29131857 90.23099575 49.07129668 90.34294526 45.85107422 90.45361328 C42.63809845 90.56970713 39.4252471 90.68831014 36.2124939 90.81040955 C34.21916829 90.88557876 32.22569885 90.95705915 30.23208618 91.02418518 C29.31438446 91.05769577 28.39668274 91.09120636 27.45117188 91.12573242 C26.65732086 91.15300919 25.86346985 91.18028595 25.04556274 91.20838928 C22.65668396 91.36320654 20.31751535 91.61110353 17.94232178 91.89762878 C13.46161947 92.40949742 9.04759532 92.5455147 4.54101562 92.55224609 C3.72522034 92.557211 2.90942505 92.5621759 2.06890869 92.56729126 C-0.59485753 92.58174559 -3.25856451 92.58868161 -5.92236328 92.59423828 C-6.83710041 92.59706566 -7.75183754 92.59989304 -8.69429398 92.60280609 C-13.5217848 92.61771973 -18.34924626 92.62700234 -23.17675781 92.63134766 C-28.16366343 92.63686414 -33.15030039 92.66098053 -38.1371212 92.68931961 C-41.97690641 92.70790434 -45.81662578 92.71314905 -49.65645218 92.71468353 C-51.49610511 92.71771297 -53.33575679 92.72575128 -55.17536545 92.73886871 C-57.73886832 92.7558646 -60.30169853 92.75406666 -62.86523438 92.74755859 C-63.62577118 92.75677338 -64.38630798 92.76598816 -65.16989136 92.77548218 C-70.29159107 92.73461205 -70.29159107 92.73461205 -72.6953125 91.02278137 C-76.57225395 85.1579531 -76.09591402 78.55804608 -76.10986328 71.80126953 C-76.11652008 70.66572128 -76.12317688 69.53017303 -76.1300354 68.36021423 C-76.14015376 65.9503643 -76.14485267 63.54048639 -76.14453125 61.13061523 C-76.1488406 57.52488661 -76.18499102 53.92044835 -76.22314453 50.31494141 C-76.29800643 34.60894154 -75.79055641 18.44100517 -70.77392578 3.39111328 C-47.24179425 -0.15745611 -23.74441727 -0.07488525 0 0 Z " fill="#FEFEFE" transform="translate(695.77392578125,922.60888671875)"/>
<path d="M0 0 C8.25 0 16.5 0 25 0 C25.33 13.86 25.66 27.72 26 42 C29.3 40.02 32.6 38.04 36 36 C41.93805554 33.28889935 46.75336637 32.47922677 53.25 32.5625 C54.49789307 32.57385986 54.49789307 32.57385986 55.77099609 32.58544922 C69.74881002 32.95678149 80.56423707 38.8071991 90.14453125 48.7890625 C100.05651931 60.5999788 101.04487309 72.34461827 100.26806641 87.22900391 C99.21294021 98.13581846 92.8015382 107.53270164 84.71875 114.67333984 C73.1750006 123.58367141 60.60136973 126.16680443 46.28125 124.7265625 C38.75866795 123.46486361 32.30911542 120.20607695 26 116 C25.67 118.97 25.34 121.94 25 125 C16.75 125 8.5 125 0 125 C0 83.75 0 42.5 0 0 Z " fill="#01367A" transform="translate(1327,1368)"/>
<path d="M0 0 C8.25 0 16.5 0 25 0 C25 41.25 25 82.5 25 125 C16.75 125 8.5 125 0 125 C-0.495 120.545 -0.495 120.545 -1 116 C-1.59425781 116.39832031 -2.18851563 116.79664063 -2.80078125 117.20703125 C-14.50017367 124.68518099 -27.46537448 127.31056842 -41.15234375 124.30859375 C-47.42248264 122.20682209 -52.72968634 118.94756827 -58 115 C-59.5778125 113.8553125 -59.5778125 113.8553125 -61.1875 112.6875 C-69.88425533 104.37726712 -75.00283206 92.79753258 -75.29272461 80.80664062 C-75.41159766 66.56535532 -71.80141878 56.41653065 -61.96875 45.80859375 C-52.87784285 37.12941247 -42.76328658 32.82192039 -30.375 32.75 C-29.51003906 32.729375 -28.64507813 32.70875 -27.75390625 32.6875 C-16.66336285 32.62098999 -10.02571945 36.53142576 0 42 C0 28.14 0 14.28 0 0 Z " fill="#01367A" transform="translate(1287,522)"/>
<path d="M0 0 C1.40378321 1.14587885 2.73920082 2.37484321 4.0546875 3.62109375 C4.3846875 0.65109375 4.7146875 -2.31890625 5.0546875 -5.37890625 C13.3046875 -5.37890625 21.5546875 -5.37890625 30.0546875 -5.37890625 C30.0546875 25.31109375 30.0546875 56.00109375 30.0546875 87.62109375 C21.8046875 87.62109375 13.5546875 87.62109375 5.0546875 87.62109375 C4.5596875 83.16609375 4.5596875 83.16609375 4.0546875 78.62109375 C3.0853125 79.54921875 2.1159375 80.47734375 1.1171875 81.43359375 C-5.46816759 87.00480416 -12.34336891 88.1612102 -20.83203125 87.90234375 C-33.81317372 86.7296433 -45.08563885 81.25277216 -53.9453125 71.62109375 C-62.52246758 60.11599417 -65.92073301 48.95090774 -64.9453125 34.62109375 C-62.72070909 21.58877139 -55.83823863 10.29081023 -45.046875 2.5390625 C-31.29496781 -5.85702479 -14.16545681 -10.04097641 0 0 Z " fill="#02367B" transform="translate(1158.9453125,559.37890625)"/>
<path d="M0 0 C10.86140617 7.80663569 16.64028672 17.67850351 20.25 30.3125 C20.25 36.2525 20.25 42.1925 20.25 48.3125 C-2.19 48.3125 -24.63 48.3125 -47.75 48.3125 C-43.39275148 54.84837279 -39.64659604 59.67358384 -31.75 61.3125 C-24.49799952 62.03658607 -18.84622847 61.49888246 -12.75 57.3125 C-12.09 56.6525 -11.43 55.9925 -10.75 55.3125 C-5.41963532 55.69467709 -0.49887055 57.14105644 4.5625 58.75 C5.27728516 58.96720703 5.99207031 59.18441406 6.72851562 59.40820312 C12.00026829 61.06276829 12.00026829 61.06276829 14.25 63.3125 C7.10871535 72.75191082 0.56058544 80.21192693 -10.75 84.3125 C-11.64074219 84.66957031 -12.53148437 85.02664063 -13.44921875 85.39453125 C-24.09428709 88.35499404 -36.98685739 87.40699929 -46.75 82.3125 C-47.62011719 81.86519531 -48.49023438 81.41789062 -49.38671875 80.95703125 C-61.12252255 74.4137505 -68.94841089 64.52537144 -72.6875 51.5 C-75.81320661 36.57475092 -73.45747721 24.33837431 -65.37109375 11.59375 C-60.41731949 4.62265562 -54.31755353 0.19702822 -46.75 -3.6875 C-45.94046875 -4.10386719 -45.1309375 -4.52023437 -44.296875 -4.94921875 C-29.4271634 -11.449016 -13.44643792 -8.12340742 0 0 Z " fill="#03377C" transform="translate(1743.75,983.6875)"/>
<path d="M0 0 C9.94929049 8.27109691 17.41413943 18.960702 19 32 C19 36.95 19 41.9 19 47 C-3.44 47 -25.88 47 -49 47 C-44.87106112 54.22564305 -42.52314147 57.06514811 -35 60 C-27.44052111 61.39253558 -21.72449294 60.03382837 -15.15625 56.19140625 C-11.3873405 54.1089472 -9.55180122 53.86248487 -5.28515625 54.92578125 C-3.87420844 55.37754952 -2.46669737 55.84016743 -1.0625 56.3125 C-0.00772461 56.6518457 -0.00772461 56.6518457 1.06835938 56.99804688 C4.77048957 58.20201986 8.40464057 59.50134725 12 61 C7.23689461 71.1444985 -0.78117967 78.68020421 -11.1875 82.875 C-24.60759788 86.83502888 -38.58724726 86.63238605 -51 80 C-54.25751407 77.90623905 -57.13279621 75.59681915 -60 73 C-60.62519531 72.47792969 -61.25039062 71.95585938 -61.89453125 71.41796875 C-68.77246569 65.25929542 -74.32956482 54.97865473 -75.21899414 45.72045898 C-76.15033522 25.42344545 -76.15033522 25.42344545 -71 17 C-70.57589844 16.25105469 -70.15179687 15.50210938 -69.71484375 14.73046875 C-62.6675857 3.20751477 -53.01399644 -4.41304434 -40.0625 -8.375 C-26.21972219 -11.14927572 -11.25381795 -8.62305531 0 0 Z " fill="#03377C" transform="translate(1560,985)"/>
<path d="M0 0 C8.58 0 17.16 0 26 0 C26.33 11.55 26.66 23.1 27 35 C29.64 33.02 32.28 31.04 35 29 C44.54633308 24.30773459 55.31737894 23.49751853 65.6484375 26.18359375 C77.70253354 30.36848756 85.05521331 36.33449139 91.640625 47.08203125 C95.78775508 55.98406048 96.41474143 64.13917638 96.29296875 73.8828125 C96.28872391 75.17822968 96.28447906 76.47364685 96.28010559 77.80831909 C96.26876378 81.21799755 96.23939184 84.62728 96.20599365 88.0368042 C96.17505967 91.52969001 96.16155093 95.02264109 96.14648438 98.515625 C96.1145091 105.34392704 96.06183147 112.17190362 96 119 C88.41 119 80.82 119 73 119 C72.97421875 115.50664063 72.9484375 112.01328125 72.921875 108.4140625 C72.88338708 105.00496602 72.83824843 101.59601733 72.79248047 98.18701172 C72.76437454 95.8303135 72.74310877 93.47352282 72.72900391 91.11669922 C72.70743082 87.71534243 72.66070529 84.31508513 72.609375 80.9140625 C72.60814636 79.87198639 72.60691772 78.82991028 72.60565186 77.7562561 C72.45121722 69.92212953 71.03032187 62.827775 66.0703125 56.5625 C59.84458814 51.56191818 54.73149778 49.41390518 46.65625 49.6328125 C40.82125393 50.4394149 35.94431964 52.7480598 32.07421875 57.23046875 C28.69869271 62.16888752 26.89692813 66.08124062 26.79467773 72.11401367 C26.77473251 73.15486618 26.75478729 74.19571869 26.73423767 75.26811218 C26.70916893 76.95104118 26.70916893 76.95104118 26.68359375 78.66796875 C26.66281265 79.81791824 26.64203156 80.96786774 26.62062073 82.15266418 C26.55516658 85.83088125 26.49625926 89.50917048 26.4375 93.1875 C26.39431087 95.67904396 26.35069645 98.17058059 26.30664062 100.66210938 C26.1986881 106.77466665 26.09958334 112.88727767 26 119 C17.42 119 8.84 119 0 119 C0 79.73 0 40.46 0 0 Z " fill="#03377B" transform="translate(1241,951)"/>
<path d="M0 0 C10.08177468 7.32063999 16.23309734 16.32429203 20.1875 28.1875 C20.1875 34.4575 20.1875 40.7275 20.1875 47.1875 C-1.9225 47.1875 -24.0325 47.1875 -46.8125 47.1875 C-39.95189113 56.74739375 -39.95189113 56.74739375 -29.8125 61.1875 C-24.0128132 61.73464026 -19.06952482 60.5713962 -13.8125 58.1875 C-12.96558594 57.424375 -12.11867188 56.66125 -11.24609375 55.875 C-6.57933899 53.58144135 -4.24474097 54.70981638 0.53515625 56.32421875 C1.53417969 56.69160156 2.53320312 57.05898438 3.5625 57.4375 C4.58472656 57.78941406 5.60695313 58.14132812 6.66015625 58.50390625 C9.1786717 59.37479477 11.68581599 60.26960224 14.1875 61.1875 C10.87355638 69.95503422 4.01618373 76.56610928 -4.16796875 81.00390625 C-15.29601925 85.98440743 -29.05180275 87.47828311 -40.75 83.5625 C-55.50895576 77.23093004 -64.69736351 66.93827502 -70.62109375 52.171875 C-74.05833514 41.26752299 -72.45231628 28.43158875 -67.8125 18.1875 C-60.96444749 6.52156984 -51.11399209 -2.5169526 -37.89941406 -6.37036133 C-24.95533716 -9.11272484 -11.15229522 -6.96784944 0 0 Z " fill="#02367B" transform="translate(1406.8125,561.8125)"/>
<path d="M0 0 C0.50660156 0.45375 1.01320313 0.9075 1.53515625 1.375 C1.53515625 2.035 1.53515625 2.695 1.53515625 3.375 C0.13671875 4.75 0.13671875 4.75 -1.83984375 6.375 C-7.00627872 10.75443323 -11.72261899 15.54531617 -16.46484375 20.375 C-17.2125 20.02566406 -17.96015625 19.67632813 -18.73046875 19.31640625 C-19.7153125 18.86136719 -20.70015625 18.40632812 -21.71484375 17.9375 C-22.689375 17.48503906 -23.66390625 17.03257812 -24.66796875 16.56640625 C-32.45227285 13.25046665 -41.88317453 12.82524128 -49.90625 15.5390625 C-52.89325218 16.99704855 -55.67472053 18.5711529 -58.46484375 20.375 C-59.07972656 20.75785156 -59.69460938 21.14070312 -60.328125 21.53515625 C-66.57337461 26.0375455 -70.49407426 34.11569771 -72.46484375 41.375 C-73.39374049 51.09601243 -73.03304592 60.17622141 -67.0859375 68.24609375 C-65.90708666 69.64660885 -64.68945707 71.01431853 -63.46484375 72.375 C-63.46484375 73.035 -63.46484375 73.695 -63.46484375 74.375 C-62.88476562 74.6534375 -62.3046875 74.931875 -61.70703125 75.21875 C-58.88758272 76.67268165 -56.30061227 78.40307272 -53.66015625 80.15625 C-45.93017519 84.44762739 -36.74943202 84.75133011 -28.28515625 82.546875 C-25.6249312 81.58083122 -23.04934849 80.52647041 -20.46484375 79.375 C-18.79966232 78.70463217 -17.13317873 78.03748065 -15.46484375 77.375 C-12.62347133 80.15858481 -9.7931622 82.95315727 -6.96484375 85.75 C-6.15402344 86.5440625 -5.34320312 87.338125 -4.5078125 88.15625 C-3.74082031 88.91679688 -2.97382812 89.67734375 -2.18359375 90.4609375 C-1.47138672 91.1626709 -0.75917969 91.8644043 -0.02539062 92.58740234 C1.53515625 94.375 1.53515625 94.375 1.53515625 96.375 C-14.78905889 108.19598337 -30.58730821 110.7319269 -50.46484375 109.375 C-54.81466717 108.56491143 -58.50314599 107.32064801 -62.46484375 105.375 C-63.23183594 105.024375 -63.99882813 104.67375 -64.7890625 104.3125 C-80.15202704 96.59080054 -91.01280411 83.55595298 -96.46484375 67.375 C-96.8309375 66.33472656 -97.19703125 65.29445313 -97.57421875 64.22265625 C-98.75003696 59.14291528 -98.79428136 54.32145812 -98.77734375 49.125 C-98.79345703 48.15175781 -98.80957031 47.17851563 -98.82617188 46.17578125 C-98.83726551 29.46875992 -91.89123157 15.93750895 -80.30078125 4.1796875 C-56.91898026 -17.54968939 -25.85400332 -17.04479458 0 0 Z " fill="#02377B" transform="translate(1223.46484375,959.625)"/>
<path d="M0 0 C8.25 0 16.5 0 25 0 C25.33 3.63 25.66 7.26 26 11 C27.6396875 9.39125 27.6396875 9.39125 29.3125 7.75 C37.34497715 0.82690343 45.77380899 -0.70146056 56.21484375 -0.3828125 C65.84230798 0.59086293 73.84794167 3.44789358 81 10 C81.92232422 10.78697266 81.92232422 10.78697266 82.86328125 11.58984375 C91.11371899 19.0982721 95.34098726 30.13966577 96.26370239 41.14529419 C96.34419644 44.54218151 96.33800275 47.92669245 96.29296875 51.32421875 C96.28872391 52.55163284 96.28447906 53.77904694 96.28010559 55.0436554 C96.26344819 58.92516967 96.22581949 62.80614533 96.1875 66.6875 C96.17243648 69.33527891 96.15875101 71.98306603 96.14648438 74.63085938 C96.11615201 81.08760895 96.05740315 87.54320876 96 94 C88.08 94 80.16 94 72 94 C71.98582031 90.36226562 71.97164062 86.72453125 71.95703125 82.9765625 C71.92636169 79.42845576 71.88728539 75.88053339 71.84741211 72.33251953 C71.82430659 69.87881047 71.80985401 67.42500328 71.80444336 64.97119141 C71.79509979 61.43069833 71.7539873 57.89173303 71.70703125 54.3515625 C71.7109639 53.26573883 71.71489655 52.17991516 71.71894836 51.06118774 C71.58115238 43.76333414 70.18650888 38.07261375 66 32 C60.0786032 26.41841632 53.83657213 24.50734647 45.78125 24.69140625 C38.97592946 25.44649097 34.64606268 28.81139287 30.32421875 33.92578125 C25.89124135 40.86947151 25.53621016 46.74333345 25.48828125 54.83984375 C25.47033005 55.96193741 25.45237885 57.08403107 25.43388367 58.24012756 C25.3799251 61.80588075 25.34593049 65.37150115 25.3125 68.9375 C25.27931427 71.36264862 25.24482345 73.78777976 25.20898438 76.21289062 C25.12176257 82.14194469 25.06156761 88.07040255 25 94 C16.75 94 8.5 94 0 94 C0 62.98 0 31.96 0 0 Z " fill="#01367A" transform="translate(1383,976)"/>
<path d="M0 0 C1.61551758 -0.02416992 1.61551758 -0.02416992 3.26367188 -0.04882812 C12.76949143 -0.05458574 20.52959699 1.92883365 29 6.25 C29.96550781 6.73339844 30.93101563 7.21679688 31.92578125 7.71484375 C34.77782468 9.36475289 37.24040636 11.1061041 39.6875 13.3125 C39.6875 13.9725 39.6875 14.6325 39.6875 15.3125 C38.25390625 16.72265625 38.25390625 16.72265625 36.25 18.375 C31.46408299 22.43318366 27.0760623 26.83250931 22.6875 31.3125 C22.0275 31.044375 21.3675 30.77625 20.6875 30.5 C19.6975 30.108125 18.7075 29.71625 17.6875 29.3125 C16.79587158 28.92481445 16.79587158 28.92481445 15.88623047 28.52929688 C10.79153905 26.41869349 6.30980663 25.76597255 0.8125 25.8125 C0.02311035 25.81822021 -0.7662793 25.82394043 -1.57958984 25.82983398 C-8.12734371 26.02986308 -12.96777856 27.39568188 -18.3125 31.3125 C-19.03824219 31.83199219 -19.76398438 32.35148437 -20.51171875 32.88671875 C-26.84975066 37.91262575 -31.13103887 44.23130588 -32.3125 52.3125 C-33.10861496 63.61472218 -32.46890865 73.58626099 -25.0625 82.6875 C-18.50220273 89.54279993 -10.89118607 93.47586248 -1.29760742 93.74169922 C-0.22216675 93.74580811 -0.22216675 93.74580811 0.875 93.75 C1.62096436 93.75531738 2.36692871 93.76063477 3.13549805 93.76611328 C9.02579337 93.65299724 13.37931609 92.24263111 18.48828125 89.2109375 C20.6875 88.3125 20.6875 88.3125 22.62719727 89.06860352 C24.69615605 90.31772604 26.17475253 91.58433717 27.8515625 93.31640625 C28.41617187 93.89197266 28.98078125 94.46753906 29.5625 95.06054688 C30.14 95.65931641 30.7175 96.25808594 31.3125 96.875 C32.46910151 98.06599384 33.62785778 99.25490005 34.7890625 100.44140625 C35.29775879 100.96806885 35.80645508 101.49473145 36.33056641 102.03735352 C37.68150105 103.4289217 37.68150105 103.4289217 39.6875 104.3125 C37.88628466 109.71614601 32.52769197 111.7612108 27.6875 114.3125 C13.82384297 120.55192365 -3.32948583 122.18392675 -18 117.75 C-19.79746044 116.99824013 -21.57037786 116.18486311 -23.3125 115.3125 C-24.28832031 114.84972656 -25.26414062 114.38695312 -26.26953125 113.91015625 C-40.95786067 106.19831192 -51.65717206 93.37815159 -57 77.69140625 C-58.72877577 71.60593168 -58.79029769 65.66510376 -58.75 59.375 C-58.76998047 58.27220703 -58.78996094 57.16941406 -58.81054688 56.03320312 C-58.80153791 40.76300885 -51.71844501 27.2688421 -41.3125 16.3125 C-28.55558915 5.24478011 -16.76064701 -0.04961707 0 0 Z " fill="#02367B" transform="translate(1088.3125,1372.6875)"/>
<path d="M0 0 C7.92 0 15.84 0 24 0 C24.01417969 3.70992187 24.02835938 7.41984375 24.04296875 11.2421875 C24.07363629 14.85979121 24.11271314 18.47721399 24.15258789 22.09472656 C24.17569668 24.59693949 24.19014676 27.09924871 24.19555664 29.6015625 C24.20489775 33.21154291 24.2460053 36.82002358 24.29296875 40.4296875 C24.2890361 41.53738495 24.28510345 42.6450824 24.28105164 43.78634644 C24.43991958 52.3621203 26.37558157 59.37558157 32.5625 65.5625 C38.19550736 68.88452998 44.63879581 68.5708773 51 68 C55.6482207 66.75547639 58.82920938 64.81279574 61.375 60.6875 C65.10682718 53.48542231 65.32729667 46.32266955 65.4140625 38.37890625 C65.43342865 37.27900864 65.4527948 36.17911102 65.4727478 35.04588318 C65.53226908 31.55149967 65.57881927 28.05708274 65.625 24.5625 C65.66320501 22.18553294 65.7022582 19.80857935 65.7421875 17.43164062 C65.83953577 11.62116599 65.91932358 5.81082549 66 0 C74.25 0 82.5 0 91 0 C91 30.69 91 61.38 91 93 C82.75 93 74.5 93 66 93 C66 90.03 66 87.06 66 84 C65.35933594 84.48210937 64.71867187 84.96421875 64.05859375 85.4609375 C63.19363281 86.09257813 62.32867188 86.72421875 61.4375 87.375 C60.59058594 88.00148438 59.74367188 88.62796875 58.87109375 89.2734375 C51.21123977 93.87977146 42.67230042 93.84350642 34 93 C22.13538882 89.87700011 12.44030241 82.38138299 6 72 C2.12343056 64.20668942 -0.13405791 57.10867001 -0.11352539 48.36181641 C-0.11344986 47.28114899 -0.11337433 46.20048157 -0.11329651 45.08706665 C-0.10813522 43.93685028 -0.10297394 42.78663391 -0.09765625 41.6015625 C-0.0962413 40.41146576 -0.09482635 39.22136902 -0.09336853 37.99520874 C-0.0877842 34.20511328 -0.07523451 30.41507752 -0.0625 26.625 C-0.05748298 24.0507821 -0.05292042 21.47656328 -0.04882812 18.90234375 C-0.03867206 12.60152115 -0.01909342 6.30082719 0 0 Z " fill="#03377C" transform="translate(1210,1400)"/>
<path d="M0 0 C7.71021604 5.37301711 12.74986675 13.27234063 14.49609375 22.52734375 C14.49609375 24.83734375 14.49609375 27.14734375 14.49609375 29.52734375 C6.90609375 29.52734375 -0.68390625 29.52734375 -8.50390625 29.52734375 C-8.99890625 26.06234375 -8.99890625 26.06234375 -9.50390625 22.52734375 C-14.43853421 17.71924472 -18.16213904 17.32181671 -24.81640625 17.27734375 C-25.57630859 17.25671875 -26.33621094 17.23609375 -27.11914062 17.21484375 C-31.77781453 17.18246374 -34.65593413 17.60872218 -38.50390625 20.52734375 C-38.64422191 23.44936792 -38.64422191 23.44936792 -37.50390625 26.52734375 C-32.17166502 28.95322053 -27.1397512 30.04361845 -21.37890625 30.83984375 C-8.72131104 32.88543137 2.50082065 36.92174176 10.49609375 47.52734375 C14.6823094 53.96871429 14.36689163 62.14629509 13.49609375 69.52734375 C11.43962539 76.34567884 7.72229941 81.9649816 1.49609375 85.52734375 C-11.04106764 91.51785052 -26.38630659 93.30251197 -39.75390625 88.90234375 C-48.23896414 85.1105835 -56.32218502 78.76667652 -60.60546875 70.3671875 C-62.86340279 64.38471741 -62.50390625 60.27923004 -62.50390625 53.52734375 C-54.91390625 53.52734375 -47.32390625 53.52734375 -39.50390625 53.52734375 C-38.84390625 56.82734375 -38.18390625 60.12734375 -37.50390625 63.52734375 C-31.26174698 68.2089632 -26.08012371 68.05346996 -18.50390625 67.52734375 C-15.31190388 66.90175069 -13.41690713 66.12124989 -10.50390625 64.52734375 C-9.36949847 61.9565424 -9.36949847 61.9565424 -9.50390625 59.52734375 C-13.14883051 57.10339791 -16.22275777 55.95114065 -20.51171875 55.1328125 C-22.24035156 54.78186523 -22.24035156 54.78186523 -24.00390625 54.42382812 C-26.39580126 53.95601676 -28.7890229 53.49493153 -31.18359375 53.04101562 C-42.71281547 50.67752517 -52.78040301 46.62217624 -59.50390625 36.52734375 C-62.90745988 30.58637379 -63.35699243 24.24659558 -62.50390625 17.52734375 C-60.40044009 10.05231429 -56.29650358 3.77951616 -49.58984375 -0.203125 C-34.55405659 -7.9039357 -14.86916588 -8.74520365 0 0 Z " fill="#03377C" transform="translate(1648.50390625,979.47265625)"/>
<path d="M0 0 C9.24 0 18.48 0 28 0 C28.09059488 16.43007839 28.16415228 32.85994072 28.20724869 49.29020023 C28.22779861 56.92052775 28.25577263 64.55068807 28.30175781 72.1809082 C28.34185936 78.83809149 28.36748769 85.49515358 28.37635398 92.15245432 C28.3815297 95.67144604 28.39353222 99.19009131 28.42292023 102.70897102 C28.71620903 139.28702711 28.71620903 139.28702711 19.03125 150.203125 C9.65061535 158.50137873 -2.97214092 160 -15 160 C-15 150.43 -15 140.86 -15 131 C-10.545 130.01 -10.545 130.01 -6 129 C-1.86359533 124.86359533 -0.75752158 121.58221401 -0.7215271 115.80509949 C-0.71036362 114.78011353 -0.69920013 113.75512756 -0.68769836 112.69908142 C-0.68553818 111.58561844 -0.68337799 110.47215546 -0.68115234 109.32495117 C-0.67110672 108.144039 -0.6610611 106.96312683 -0.65071106 105.74642944 C-0.62515445 102.51748134 -0.60827778 99.28862879 -0.59528303 96.05961013 C-0.57962883 92.68164199 -0.55284594 89.30376236 -0.5272522 85.92585754 C-0.48050485 79.53347532 -0.44374123 73.14107636 -0.41057932 66.74861079 C-0.3723293 59.46925575 -0.32292671 52.18998971 -0.27259517 44.91070974 C-0.16933546 29.94053295 -0.08152791 14.97031387 0 0 Z " fill="#02367B" transform="translate(1044,530)"/>
<path d="M0 0 C8.58 0 17.16 0 26 0 C26 41.25 26 82.5 26 125 C17.42 125 8.84 125 0 125 C0 83.75 0 42.5 0 0 Z " fill="#073B7E" transform="translate(1159,1368)"/>
<path d="M0 0 C8.58 0 17.16 0 26 0 C26 31.02 26 62.04 26 94 C17.42 94 8.84 94 0 94 C0 62.98 0 31.96 0 0 Z " fill="#03387C" transform="translate(1348,976)"/>
<path d="M0 0 C5.82053259 3.25727738 8.79421054 7.72977276 12.0625 13.375 C13.62779606 19.94924347 13.48986686 26.18267878 10.078125 32.1171875 C5.65401007 38.10714086 -0.00187395 42.38019462 -7.3125 44 C-14.3435878 44.90723714 -19.49710376 43.04549304 -25.3125 39 C-30.34661378 33.86230363 -33.31301768 28.51710587 -33.75 21.3125 C-33.59036855 14.61795594 -31.08806753 9.06007901 -26.59765625 4.109375 C-18.89318137 -2.83645356 -9.55385419 -4.28624576 0 0 Z " fill="#D0E5F5" transform="translate(1268.3125,580)"/>
<path d="M0 0 C5.10899954 5.10899954 7.67957803 10.15120424 7.9375 17.4375 C7.5472457 25.32263821 5.18281883 29.97311983 -0.625 35.25 C-6.48931032 40.17510437 -10.73431562 40.82882602 -18.36328125 40.68359375 C-24.79224943 40.07534407 -28.73848779 37.62704598 -33 32.875 C-37.80929951 26.96412909 -38.3010339 21.68416533 -38.06640625 14.15234375 C-37.31828507 7.75028023 -34.52986459 3.96126654 -29.80859375 -0.2421875 C-20.53337088 -7.33382658 -9.4218601 -5.83258006 0 0 Z " fill="#D4E9F4" transform="translate(1155.625,582.625)"/>
<path d="M0 0 C4.82430503 3.21620335 8.96756921 7.98637524 11.109375 13.40625 C12.05441492 20.99953589 11.4633176 27.97718272 7.109375 34.40625 C2.76922816 39.18863929 -1.65025515 42.03846609 -8.16015625 42.77734375 C-15.75803824 42.91975168 -21.17675523 42.70506869 -26.890625 37.40625 C-31.9987245 32.27188778 -34.19749556 28.03969821 -34.390625 20.78125 C-34.27137555 13.61883008 -32.70269135 8.75524165 -27.890625 3.40625 C-19.53877113 -3.38847857 -9.76619256 -4.84846439 0 0 Z " fill="#CFE3F8" transform="translate(1392.890625,1426.59375)"/>
<path d="M0 0 C8.25 0 16.5 0 25 0 C25 6.93 25 13.86 25 21 C16.75 21 8.5 21 0 21 C0 14.07 0 7.14 0 0 Z " fill="#01367B" transform="translate(1348,943)"/>
<path d="M0 0 C4.21877035 2.39131588 6.91534782 4.81603333 9.5625 8.875 C9.5625 9.865 9.5625 10.855 9.5625 11.875 C-3.9675 11.875 -17.4975 11.875 -31.4375 11.875 C-30.16084157 6.76836627 -27.87855828 3.71709491 -23.75 0.6015625 C-16.30503525 -3.77235429 -7.73077148 -3.56007211 0 0 Z " fill="#CADEF8" transform="translate(1542.4375,1002.125)"/>
<path d="M0 0 C2.63228577 2.4574476 4.98656419 5.00897961 7 8 C7 8.66 7 9.32 7 10 C-6.86 10 -20.72 10 -35 10 C-32.37722402 3.44306004 -28.43867032 -0.28066484 -22.125 -3.4375 C-14.06355741 -4.88855967 -6.97940272 -4.6615199 0 0 Z " fill="#C8DBFC" transform="translate(1731,1004)"/>
<path d="M0 0 C4.46561275 2.49276629 7.97908534 5.56660317 10.6875 9.9375 C10.6875 10.5975 10.6875 11.2575 10.6875 11.9375 C-2.8425 11.9375 -16.3725 11.9375 -30.3125 11.9375 C-28.86548798 6.14945191 -26.2176655 3.27089193 -21.25 0.125 C-14.10569116 -3.56427424 -7.25929769 -3.28085376 0 0 Z " fill="#CDE1F6" transform="translate(1391.3125,580.0625)"/>
</svg>
